<svg width="207" height="216" viewBox="0 0 207 216" fill="none" xmlns="http://www.w3.org/2000/svg">
<path d="M80.0746 216C124.299 216 160.149 209.684 160.149 201.893C160.149 194.102 124.299 187.787 80.0746 187.787C35.8506 187.787 0 194.102 0 201.893C0 209.684 35.8506 216 80.0746 216Z" fill="#3F3D56"/>
<path d="M128.742 156.079C171.963 156.079 207 121.14 207 78.0395C207 34.9395 171.963 0 128.742 0C85.5218 0 50.4846 34.9395 50.4846 78.0395C50.4846 121.14 85.5218 156.079 128.742 156.079Z" fill="#3F3D56"/>
<path opacity="0.05" d="M128.742 142.464C164.422 142.464 193.346 113.62 193.346 78.0396C193.346 42.4591 164.422 13.6154 128.742 13.6154C93.0624 13.6154 64.1381 42.4591 64.1381 78.0396C64.1381 113.62 93.0624 142.464 128.742 142.464Z" fill="black"/>
<path opacity="0.05" d="M128.742 130.841C157.985 130.841 181.691 107.201 181.691 78.0395C181.691 48.8782 157.985 25.2383 128.742 25.2383C99.4994 25.2383 75.7935 48.8782 75.7935 78.0395C75.7935 107.201 99.4994 130.841 128.742 130.841Z" fill="black"/>
<path opacity="0.05" d="M128.742 115.897C149.709 115.897 166.706 98.9476 166.706 78.0395C166.706 57.1314 149.709 40.1821 128.742 40.1821C107.776 40.1821 90.7789 57.1314 90.7789 78.0395C90.7789 98.9476 107.776 115.897 128.742 115.897Z" fill="black"/>
<path d="M51.1778 85.0236C51.1778 85.0236 45.0252 102.294 47.7597 108.429C50.4942 114.565 54.8238 120.473 54.8238 120.473C54.8238 120.473 53.2287 86.1598 51.1778 85.0236Z" fill="#D0CDE1"/>
<path opacity="0.1" d="M51.1778 85.0236C51.1778 85.0236 45.0252 102.294 47.7597 108.429C50.4942 114.565 54.8238 120.473 54.8238 120.473C54.8238 120.473 53.2287 86.1598 51.1778 85.0236Z" fill="black"/>
<path d="M55.5074 125.018C55.5074 125.018 55.0517 129.335 54.8238 129.563C54.5959 129.79 55.0517 130.244 54.8238 130.926C54.5959 131.608 54.368 132.517 54.8238 132.744C55.2795 132.971 52.3172 152.968 52.3172 152.968C52.3172 152.968 45.0252 162.512 47.9875 177.51L48.899 192.735C48.899 192.735 55.9632 193.19 55.9632 190.69C55.9632 190.69 55.5074 187.736 55.5074 186.372C55.5074 185.009 56.6468 185.009 55.9632 184.327C55.2795 183.646 55.2795 183.191 55.2795 183.191C55.2795 183.191 56.4189 182.282 56.191 182.055C55.9632 181.828 58.2419 165.694 58.2419 165.694C58.2419 165.694 60.7485 163.194 60.7485 161.831V160.467C60.7485 160.467 61.8879 157.513 61.8879 157.286C61.8879 157.059 68.0405 143.197 68.0405 143.197L70.5471 153.195L73.2816 167.512C73.2816 167.512 74.6489 180.464 77.3834 185.464C77.3834 185.464 82.1688 201.825 82.1688 201.37C82.1688 200.916 90.1444 199.78 89.9165 197.734C89.6886 195.689 85.1311 167.057 85.1311 167.057L86.2705 124.563L55.5074 125.018Z" fill="#2F2E41"/>
<path d="M49.3548 191.599C49.3548 191.599 43.2021 203.643 47.3039 204.097C51.4056 204.552 53.0008 204.552 54.8238 202.734C55.8204 201.74 57.8386 200.406 59.4636 199.402C60.4264 198.816 61.2042 197.972 61.7078 196.965C62.2114 195.959 62.4203 194.831 62.3107 193.712C62.1905 192.6 61.774 191.684 60.7485 191.599C58.014 191.372 54.8238 188.872 54.8238 188.872L49.3548 191.599Z" fill="#2F2E41"/>
<path d="M83.3081 200.461C83.3081 200.461 77.1555 212.505 81.2573 212.959C85.359 213.414 86.9541 213.414 88.7771 211.596C89.7738 210.602 91.792 209.269 93.417 208.264C94.3798 207.678 95.1576 206.834 95.6612 205.828C96.1647 204.821 96.3737 203.694 96.2641 202.574C96.1439 201.463 95.7273 200.547 94.7019 200.461C91.9674 200.234 88.7771 197.734 88.7771 197.734L83.3081 200.461Z" fill="#2F2E41"/>
<path d="M76.8053 65.3143C82.0956 65.3143 86.3843 61.0376 86.3843 55.762C86.3843 50.4864 82.0956 46.2097 76.8053 46.2097C71.515 46.2097 67.2263 50.4864 67.2263 55.762C67.2263 61.0376 71.515 65.3143 76.8053 65.3143Z" fill="#FFB8B8"/>
<path d="M70.6475 58.9006C70.6475 58.9006 63.8053 71.4551 63.258 71.4551C62.7106 71.4551 75.5738 75.5489 75.5738 75.5489C75.5738 75.5489 79.1317 63.5403 79.6791 62.4486L70.6475 58.9006Z" fill="#FFB8B8"/>
<path d="M81.1433 72.639C81.1433 72.639 67.4708 65.1401 66.1036 65.3673C64.7363 65.5945 50.1523 78.32 50.3802 83.5465C50.6081 88.773 52.4311 97.4081 52.4311 97.4081C52.4311 97.4081 53.1147 121.495 54.4819 121.723C55.8492 121.95 54.2541 126.04 54.7098 126.04C55.1656 126.04 86.6123 126.04 86.8402 125.359C87.0681 124.677 81.1433 72.639 81.1433 72.639Z" fill="#D0CDE1"/>
<path d="M88.7771 126.608C88.7771 126.608 93.1067 139.788 89.4607 139.334C85.8147 138.879 84.2196 127.972 84.2196 127.972L88.7771 126.608Z" fill="#FFB8B8"/>
<path d="M77.1555 71.8437C77.1555 71.8437 68.7241 73.6616 70.0914 85.0236C71.4586 96.3856 73.9652 107.748 73.9652 107.748L82.3966 126.154L83.3081 129.563L89.4607 127.972L84.9033 101.612C84.9033 101.612 83.3081 73.4344 81.2572 72.5254C79.964 71.9756 78.5577 71.7419 77.1555 71.8437V71.8437Z" fill="#D0CDE1"/>
<path opacity="0.1" d="M72.0282 107.407L82.5106 126.04L73.679 106.406L72.0282 107.407Z" fill="black"/>
<path d="M86.342 52.9493L86.3736 52.2194L87.8298 52.5808C87.8142 52.3464 87.7478 52.1183 87.6351 51.912C87.5225 51.7058 87.3663 51.5264 87.1773 51.3862L88.7284 51.2997C87.4268 49.4553 85.7639 47.8931 83.8401 46.7075C81.9162 45.5218 79.7713 44.7373 77.535 44.4014C74.1799 43.9164 70.4442 44.6181 68.1435 47.1011C67.0276 48.3055 66.3264 49.8371 65.8276 51.3996C64.909 54.2774 64.7218 57.708 66.6374 60.0472C68.5842 62.4247 71.9848 62.8904 75.0487 63.1846C76.1267 63.2882 77.2565 63.3845 78.2554 62.9674C78.3666 61.8247 78.22 60.6717 77.8262 59.593C77.6622 59.259 77.5838 58.8897 77.5981 58.5181C77.7343 57.6092 78.9501 57.3802 79.8634 57.503C80.7767 57.6258 81.875 57.8137 82.4751 57.1162C82.8885 56.6358 82.8641 55.9362 82.9189 55.3055C83.068 53.5884 86.3264 53.3093 86.342 52.9493Z" fill="#2F2E41"/>
<path d="M145.095 203.835C151.259 203.835 156.256 198.852 156.256 192.705C156.256 186.558 151.259 181.575 145.095 181.575C138.931 181.575 133.934 186.558 133.934 192.705C133.934 198.852 138.931 203.835 145.095 203.835Z" fill="#FF6666"/>
<path d="M14.0164 199.952C20.1805 199.952 25.1775 194.969 25.1775 188.822C25.1775 182.675 20.1805 177.692 14.0164 177.692C7.85223 177.692 2.85522 182.675 2.85522 188.822C2.85522 194.969 7.85223 199.952 14.0164 199.952Z" fill="#FF6666"/>
<path d="M14.0162 182.092C18.4601 182.092 22.0626 178.5 22.0626 174.068C22.0626 169.637 18.4601 166.044 14.0162 166.044C9.57234 166.044 5.96985 169.637 5.96985 174.068C5.96985 178.5 9.57234 182.092 14.0162 182.092Z" fill="#FF6666"/>
<path d="M14.0163 167.339C17.17 167.339 19.7266 164.789 19.7266 161.644C19.7266 158.499 17.17 155.95 14.0163 155.95C10.8625 155.95 8.30591 158.499 8.30591 161.644C8.30591 164.789 10.8625 167.339 14.0163 167.339Z" fill="#FF6666"/>
</svg>
