<svg width="379" height="290" viewBox="0 0 379 290" fill="none" xmlns="http://www.w3.org/2000/svg">
<path opacity="0.1" d="M165.936 2.77226C182.989 -3.56434 203.75 1.88536 221.479 9.83347C277.161 34.8025 317.728 82.2005 349.958 130.489C361.627 147.974 372.712 166.229 377.099 185.749C386.031 225.478 362.733 266.607 323.111 281.02C309.637 285.927 294.834 287.938 280.008 289.059C253.645 291.056 226.349 290.263 200.197 282.87C181.547 277.586 163.905 269.087 146.984 259.697C99.7278 233.46 56.5719 199.388 25.497 157.768C11.868 139.513 0.338125 118.933 0.0058951 97.8703C-0.326335 76.8074 13.4046 55.6427 35.9963 52.0611C45.3365 50.5817 55.2165 52.1215 64.855 53.7066C79.0465 56.0427 93.4306 58.4996 107.46 57.4806C121.953 56.4201 140.804 50.7591 143.446 36.9273C146.244 22.0764 148.905 9.10131 165.936 2.77226Z" fill="#3F3D56"/>
<path d="M204.492 205.285C210.889 212.136 211.22 222.207 211.22 222.207C211.22 222.207 201.179 221.168 194.782 214.317C188.385 207.465 188.054 197.395 188.054 197.395C188.054 197.395 198.095 198.433 204.492 205.285Z" fill="#FF6666"/>
<path d="M224.63 215.979C217.766 222.364 207.677 222.694 207.677 222.694C207.677 222.694 208.717 212.672 215.581 206.287C222.446 199.902 232.535 199.572 232.535 199.572C232.535 199.572 231.495 209.594 224.63 215.979Z" fill="#FF6666"/>
<path d="M222.924 236.314H197.677C197.192 236.314 196.718 236.178 196.307 235.922C195.897 235.666 195.566 235.299 195.355 234.864L189.858 223.586C189.666 223.193 189.578 222.758 189.601 222.322C189.624 221.885 189.758 221.462 189.99 221.092C190.223 220.721 190.545 220.416 190.928 220.204C191.311 219.992 191.742 219.881 192.18 219.881H228.421C228.859 219.881 229.29 219.992 229.673 220.204C230.056 220.416 230.378 220.721 230.611 221.092C230.843 221.462 230.977 221.885 231 222.322C231.023 222.758 230.935 223.193 230.744 223.586L225.247 234.864C225.035 235.299 224.705 235.666 224.294 235.922C223.883 236.178 223.409 236.314 222.924 236.314V236.314Z" fill="#3F3D56"/>
<path d="M188.595 80.8127L188.616 80.8091L185.505 62.6541L168.301 68.1094L170.875 84.3477C169.988 83.7882 168.931 83.5616 167.893 83.7083C166.854 83.8549 165.902 84.3654 165.206 85.1484C164.51 85.9315 164.115 86.9361 164.093 87.9827C164.07 89.0294 164.421 90.0499 165.083 90.8619C165.745 91.674 166.675 92.2247 167.706 92.4156C168.737 92.6065 169.803 92.4252 170.713 91.9041C171.623 91.383 172.317 90.556 172.672 89.571C173.027 88.5859 173.02 87.5069 172.651 86.5268L172.667 86.5243L169.904 69.0977L184.373 64.5099L186.832 78.8614C185.925 78.3255 184.855 78.132 183.816 78.3158C182.778 78.4996 181.84 79.0487 181.172 79.8635C180.504 80.6784 180.151 81.705 180.176 82.7574C180.202 83.8097 180.604 84.8182 181.31 85.6C182.016 86.3818 182.98 86.8852 184.026 87.019C185.072 87.1527 186.132 86.908 187.012 86.3291C187.893 85.7503 188.537 84.8755 188.828 83.8635C189.118 82.8515 189.035 81.7692 188.595 80.8127V80.8127Z" fill="#FF6666"/>
<path d="M270.96 87.76L270.981 87.7564L267.87 69.6013L250.666 75.0567L253.24 91.295C252.353 90.7355 251.296 90.5088 250.258 90.6555C249.219 90.8022 248.267 91.3127 247.571 92.0957C246.875 92.8788 246.48 93.8833 246.458 94.93C246.435 95.9767 246.786 96.9972 247.448 97.8092C248.11 98.6213 249.04 99.172 250.071 99.3629C251.102 99.5538 252.168 99.3725 253.078 98.8514C253.987 98.3303 254.682 97.5033 255.037 96.5183C255.392 95.5332 255.385 94.4542 255.016 93.474L255.032 93.4716L252.269 76.045L266.738 71.4571L269.197 85.8087C268.29 85.2728 267.22 85.0793 266.181 85.2631C265.143 85.4469 264.205 85.996 263.537 86.8108C262.869 87.6256 262.516 88.6523 262.541 89.7046C262.567 90.757 262.969 91.7655 263.675 92.5473C264.381 93.3291 265.345 93.8325 266.391 93.9662C267.437 94.1 268.497 93.8553 269.377 93.2764C270.258 92.6975 270.902 91.8228 271.193 90.8108C271.483 89.7988 271.4 88.7165 270.96 87.76V87.76Z" fill="#FF6666"/>
<path d="M212.09 100.787L212.103 100.785L209.886 86.803L208.791 86.9759L210.713 99.0975C210.026 98.6637 209.206 98.488 208.401 98.6017C207.596 98.7155 206.857 99.1113 206.317 99.7185C205.778 100.326 205.472 101.105 205.454 101.916C205.437 102.728 205.709 103.519 206.222 104.149C206.736 104.778 207.456 105.205 208.256 105.353C209.056 105.501 209.882 105.361 210.587 104.957C211.293 104.552 211.831 103.911 212.106 103.147C212.382 102.384 212.376 101.547 212.09 100.787V100.787Z" fill="#FF6666"/>
<path d="M230.895 83.4279C230.896 82.6701 230.646 81.9332 230.182 81.3333C229.718 80.7334 229.067 80.3045 228.332 80.1143C227.597 79.924 226.82 79.9832 226.122 80.2824C225.425 80.5817 224.847 81.104 224.479 81.7672C224.112 82.4304 223.976 83.1967 224.093 83.9455C224.209 84.6943 224.573 85.3831 225.125 85.9033C225.677 86.4235 226.387 86.7456 227.142 86.8189C227.898 86.8923 228.657 86.7126 229.299 86.3083L227.377 98.4298L228.472 98.6027L230.688 84.6205L230.676 84.6186C230.82 84.238 230.894 83.8347 230.895 83.4279V83.4279Z" fill="#FF6666"/>
</svg>
