<svg width="379" height="290" viewBox="0 0 379 290" fill="none" xmlns="http://www.w3.org/2000/svg">
<path d="M175.182 147.885C179.89 152.935 180.134 160.358 180.134 160.358C180.134 160.358 172.744 159.593 168.036 154.543C163.328 149.492 163.084 142.069 163.084 142.069C163.084 142.069 170.474 142.835 175.182 147.885Z" fill="#FF6666"/>
<path d="M190.004 155.768C184.952 160.475 177.526 160.718 177.526 160.718C177.526 160.718 178.292 153.331 183.344 148.624C188.396 143.918 195.821 143.674 195.821 143.674C195.821 143.674 195.056 151.062 190.004 155.768Z" fill="#FF6666"/>
<path d="M188.748 170.758H170.166C169.81 170.758 169.461 170.657 169.158 170.468C168.856 170.279 168.613 170.009 168.457 169.689L164.411 161.375C164.271 161.086 164.206 160.765 164.223 160.443C164.24 160.122 164.338 159.81 164.509 159.537C164.68 159.264 164.918 159.038 165.2 158.882C165.481 158.726 165.798 158.644 166.121 158.644H192.794C193.116 158.644 193.433 158.726 193.715 158.882C193.997 159.038 194.234 159.264 194.405 159.537C194.576 159.81 194.675 160.122 194.692 160.443C194.709 160.765 194.644 161.086 194.503 161.375L190.457 169.689C190.301 170.009 190.058 170.279 189.756 170.468C189.454 170.657 189.105 170.758 188.748 170.758V170.758Z" fill="#3F3D56"/>
<path d="M272.198 69.3708C280.743 69.3708 287.67 62.4461 287.67 53.9041C287.67 45.362 280.743 38.4373 272.198 38.4373C263.653 38.4373 256.726 45.362 256.726 53.9041C256.726 62.4461 263.653 69.3708 272.198 69.3708Z" fill="#FFB8B8"/>
<path d="M260.65 61.6375C260.65 61.6375 263.565 83.6048 259.08 86.0705C254.596 88.5362 285.764 88.7604 285.764 88.7604C285.764 88.7604 278.813 69.7071 281.952 63.879L260.65 61.6375Z" fill="#FFB8B8"/>
<path d="M308.523 88.8715L305.931 100.671L300.45 125.635L300.286 127.002L298.395 142.829L297.136 153.344L296.293 160.407C291.163 163.042 287.445 164.861 287.445 164.861C287.445 164.861 287.126 163.259 286.61 161.208C283.01 162.287 276.349 164.077 270.704 164.434C272.759 166.725 273.704 168.877 272.423 170.465C268.556 175.252 252.59 165.223 247.006 161.484C246.876 162.379 246.827 163.284 246.859 164.188L242.586 160.903L243.009 153.344L243.722 140.554L244.618 124.514C244.336 123.827 244.099 123.122 243.909 122.404C242.601 117.752 241.012 108.462 239.794 100.671C238.813 94.4011 238.077 89.1029 237.921 87.9755C237.9 87.8283 237.89 87.7526 237.89 87.7526L261.545 77.3034C263.226 81.2008 271.076 82.3724 271.076 82.3724C277.58 81.9243 282.678 78.496 282.678 78.496L308.523 88.8715Z" fill="#D0CDE1"/>
<path d="M289.24 160.379C289.24 160.379 288.239 160.722 286.61 161.208C283.01 162.287 276.349 164.077 270.704 164.434C265.844 164.746 261.737 163.997 260.985 160.827C260.664 159.464 261.12 158.343 262.115 157.422C265.086 154.669 272.846 153.682 279 153.344C280.738 153.249 282.345 153.205 283.683 153.188C285.956 153.159 287.445 153.205 287.445 153.205L287.481 153.344L289.24 160.379Z" fill="#FFB8B8"/>
<path d="M259.327 39.2739L256.434 38.1161C256.434 38.1161 262.483 31.4591 270.898 32.038L268.531 29.433C268.531 29.433 274.317 27.1175 279.577 33.1957C282.342 36.3908 285.541 40.1466 287.535 44.3774H290.633L289.34 47.2236L293.866 50.0697L289.221 49.5585C289.498 51.117 289.54 52.7082 289.347 54.2793C289.148 55.8509 288.345 57.2836 287.109 58.2751V58.2751C287.109 58.2751 283.522 50.8514 283.522 49.6937V52.5881C283.522 52.5881 280.629 49.9831 280.629 48.2465L279.051 50.2726L278.262 47.0887L268.531 50.2726L270.109 47.6676L264.061 48.536L266.427 45.3521C266.427 45.3521 259.59 49.1148 259.327 52.2987C259.064 55.4824 257.062 58.4993 257.062 58.4993C257.062 58.4993 251.7 43.6155 259.327 39.2739Z" fill="#2F2E41"/>
<path d="M325.341 143.118C323.765 144.825 319.86 147.398 315.126 150.183C313.365 151.217 311.49 152.284 309.577 153.344C305.014 155.874 300.236 158.381 296.293 160.407C291.163 163.042 287.445 164.861 287.445 164.861C287.445 164.861 287.126 163.259 286.61 161.208C285.92 158.463 284.881 154.915 283.797 153.344C283.759 153.289 283.721 153.239 283.683 153.188C283.368 152.774 283.05 152.532 282.737 152.532L298.395 142.829L305.161 138.635L300.286 127.002L294.172 112.409L297.862 100.671L301.572 88.8715H308.523C308.523 88.8715 310.825 93.8942 313.769 100.898C314.208 101.946 314.663 103.037 315.126 104.165C321.181 118.888 328.73 139.447 325.341 143.118Z" fill="#D0CDE1"/>
<path d="M272.423 170.465C268.556 175.252 252.59 165.223 247.006 161.484C245.79 160.67 245.067 160.154 245.067 160.154L250.175 153.344L251.793 151.188C251.793 151.188 253.241 151.956 255.38 153.205C255.458 153.251 255.536 153.297 255.616 153.344C257.461 154.427 259.778 155.842 262.115 157.422C265.341 159.603 268.602 162.091 270.704 164.434C272.759 166.725 273.704 168.877 272.423 170.465Z" fill="#FFB8B8"/>
<path d="M255.38 153.205C254.809 153.203 254.239 153.249 253.676 153.344C248.839 154.175 247.413 158.552 247.006 161.484C246.876 162.379 246.827 163.284 246.859 164.188L242.586 160.903L241.029 159.706C237.282 158.4 233.943 156.08 231.048 153.344C228.536 150.928 226.283 148.257 224.325 145.374C222.375 142.533 220.637 139.553 219.124 136.456C218.702 135.592 218.475 134.646 218.46 133.685C218.444 132.724 218.64 131.77 219.034 130.893L224.325 119.104L232.06 101.874C232.116 101.464 232.179 101.063 232.247 100.671C233.781 91.8792 237.89 87.9755 237.89 87.9755H241.029L243.129 100.671L245.738 116.444L243.909 122.404L239.685 136.17L243.722 140.554L255.38 153.205Z" fill="#D0CDE1"/>
<path d="M320.112 167.899V169.175C320.113 169.526 320.048 169.873 319.921 170.2C319.864 170.345 319.796 170.486 319.717 170.62C319.466 171.041 319.11 171.389 318.684 171.631C318.258 171.873 317.777 172 317.287 172H223.332C222.842 172 222.361 171.873 221.935 171.631C221.509 171.389 221.153 171.041 220.902 170.62C220.823 170.486 220.754 170.345 220.698 170.2C220.571 169.873 220.506 169.526 220.506 169.175V167.899C220.506 167.528 220.579 167.16 220.721 166.817C220.863 166.475 221.071 166.163 221.334 165.901C221.596 165.639 221.908 165.431 222.251 165.289C222.594 165.147 222.961 165.074 223.332 165.074H228.748V164.479C228.748 164.463 228.751 164.448 228.757 164.434C228.763 164.419 228.771 164.406 228.782 164.395C228.793 164.384 228.806 164.376 228.821 164.37C228.835 164.364 228.85 164.361 228.866 164.361H231.691C231.707 164.361 231.722 164.364 231.737 164.37C231.751 164.376 231.764 164.384 231.775 164.395C231.786 164.406 231.794 164.419 231.8 164.434C231.806 164.448 231.809 164.463 231.809 164.479V165.074H233.574V164.479C233.574 164.463 233.577 164.448 233.583 164.434C233.589 164.419 233.598 164.406 233.609 164.395C233.62 164.384 233.633 164.376 233.647 164.37C233.661 164.364 233.677 164.361 233.692 164.361H236.518C236.533 164.361 236.549 164.364 236.563 164.37C236.577 164.376 236.59 164.384 236.601 164.395C236.612 164.406 236.621 164.419 236.627 164.434C236.633 164.448 236.636 164.463 236.636 164.479V165.074H238.403V164.479C238.403 164.463 238.406 164.448 238.412 164.434C238.418 164.419 238.427 164.406 238.438 164.395C238.449 164.384 238.462 164.376 238.476 164.37C238.49 164.364 238.506 164.361 238.521 164.361H241.347C241.362 164.361 241.377 164.364 241.392 164.37C241.406 164.376 241.419 164.384 241.43 164.395C241.441 164.406 241.45 164.419 241.456 164.434C241.461 164.448 241.465 164.463 241.464 164.479V165.074H243.23V164.479C243.23 164.463 243.233 164.448 243.239 164.434C243.245 164.419 243.253 164.406 243.264 164.395C243.275 164.384 243.288 164.376 243.302 164.37C243.317 164.364 243.332 164.361 243.348 164.361H246.173C246.189 164.361 246.204 164.364 246.218 164.37C246.233 164.376 246.246 164.384 246.257 164.395C246.268 164.406 246.276 164.419 246.282 164.434C246.288 164.448 246.291 164.463 246.291 164.479V165.074H248.056V164.479C248.056 164.463 248.059 164.448 248.065 164.434C248.071 164.419 248.08 164.406 248.091 164.395C248.102 164.384 248.115 164.376 248.129 164.37C248.143 164.364 248.159 164.361 248.174 164.361H251C251.015 164.361 251.031 164.364 251.045 164.37C251.059 164.376 251.072 164.384 251.083 164.395C251.094 164.406 251.103 164.419 251.109 164.434C251.115 164.448 251.118 164.463 251.118 164.479V165.074H252.885V164.479C252.885 164.463 252.888 164.448 252.894 164.434C252.9 164.419 252.909 164.406 252.92 164.395C252.93 164.384 252.943 164.376 252.958 164.37C252.972 164.364 252.987 164.361 253.003 164.361H255.829C255.844 164.361 255.859 164.364 255.874 164.37C255.888 164.376 255.901 164.384 255.912 164.395C255.923 164.406 255.932 164.419 255.937 164.434C255.943 164.448 255.946 164.463 255.946 164.479V165.074H257.712V164.479C257.712 164.463 257.715 164.448 257.721 164.434C257.726 164.419 257.735 164.406 257.746 164.395C257.757 164.384 257.77 164.376 257.784 164.37C257.799 164.364 257.814 164.361 257.829 164.361H279.964C279.979 164.361 279.994 164.364 280.009 164.37C280.023 164.376 280.036 164.384 280.047 164.395C280.058 164.406 280.067 164.419 280.073 164.434C280.078 164.448 280.081 164.463 280.081 164.479V165.074H281.849V164.479C281.849 164.463 281.852 164.448 281.858 164.434C281.864 164.419 281.872 164.406 281.883 164.395C281.894 164.384 281.907 164.376 281.922 164.37C281.936 164.364 281.951 164.361 281.967 164.361H284.792C284.823 164.361 284.853 164.374 284.875 164.396C284.897 164.418 284.91 164.447 284.91 164.479V165.074H286.675V164.479C286.675 164.463 286.678 164.448 286.684 164.434C286.69 164.419 286.699 164.406 286.71 164.395C286.721 164.384 286.734 164.376 286.748 164.37C286.762 164.364 286.778 164.361 286.793 164.361H289.619C289.634 164.361 289.65 164.364 289.664 164.37C289.678 164.376 289.691 164.384 289.702 164.395C289.713 164.406 289.722 164.419 289.728 164.434C289.734 164.448 289.737 164.463 289.737 164.479V165.074H291.502V164.479C291.502 164.463 291.505 164.448 291.511 164.434C291.517 164.419 291.526 164.406 291.536 164.395C291.547 164.384 291.56 164.376 291.575 164.37C291.589 164.364 291.604 164.361 291.62 164.361H294.446C294.461 164.361 294.476 164.364 294.491 164.37C294.505 164.376 294.518 164.384 294.529 164.395C294.54 164.406 294.549 164.419 294.554 164.434C294.56 164.448 294.563 164.463 294.563 164.479V165.074H296.331V164.479C296.331 164.463 296.334 164.448 296.34 164.434C296.346 164.419 296.354 164.406 296.365 164.395C296.376 164.384 296.389 164.376 296.403 164.37C296.418 164.364 296.433 164.361 296.449 164.361H299.274C299.305 164.361 299.335 164.374 299.356 164.396C299.378 164.418 299.39 164.448 299.39 164.479V165.074H301.157V164.479C301.157 164.463 301.16 164.448 301.166 164.434C301.172 164.419 301.181 164.406 301.192 164.395C301.203 164.384 301.216 164.376 301.23 164.37C301.244 164.364 301.26 164.361 301.275 164.361H304.101C304.116 164.361 304.132 164.364 304.146 164.37C304.16 164.376 304.173 164.384 304.184 164.395C304.195 164.406 304.204 164.419 304.21 164.434C304.216 164.448 304.219 164.463 304.219 164.479V165.074H305.984V164.479C305.984 164.463 305.987 164.448 305.993 164.434C305.999 164.419 306.007 164.406 306.018 164.395C306.029 164.384 306.042 164.376 306.057 164.37C306.071 164.364 306.086 164.361 306.102 164.361H308.927C308.943 164.361 308.958 164.364 308.973 164.37C308.987 164.376 309 164.384 309.011 164.395C309.022 164.406 309.03 164.419 309.036 164.434C309.042 164.448 309.045 164.463 309.045 164.479V165.074H317.287C317.658 165.074 318.025 165.147 318.368 165.289C318.711 165.431 319.022 165.639 319.285 165.901C319.547 166.163 319.755 166.475 319.897 166.817C320.039 167.16 320.112 167.528 320.112 167.899V167.899Z" fill="#3F3D56"/>
<path d="M312.547 114.132H277.527V113.411H261.648V114.132H226.484C226.173 114.132 225.865 114.193 225.578 114.312C225.29 114.431 225.029 114.606 224.809 114.826C224.589 115.046 224.415 115.307 224.296 115.594C224.177 115.881 224.115 116.189 224.115 116.5V164.437C224.115 165.065 224.365 165.667 224.809 166.111C225.253 166.555 225.856 166.805 226.484 166.805H312.547C313.175 166.805 313.778 166.555 314.222 166.111C314.666 165.667 314.916 165.065 314.916 164.437V116.5C314.916 116.189 314.855 115.881 314.736 115.594C314.617 115.307 314.442 115.046 314.222 114.826C314.002 114.606 313.741 114.431 313.454 114.312C313.166 114.193 312.858 114.132 312.547 114.132V114.132Z" fill="#3F3D56"/>
<path d="M269.585 136.126C272.49 136.126 274.845 133.772 274.845 130.868C274.845 127.964 272.49 125.61 269.585 125.61C266.679 125.61 264.324 127.964 264.324 130.868C264.324 133.772 266.679 136.126 269.585 136.126Z" stroke="#D0CDE1" stroke-width="2" stroke-miterlimit="10"/>
<path d="M267.901 138.019C270.806 138.019 273.161 135.665 273.161 132.761C273.161 129.857 270.806 127.503 267.901 127.503C264.996 127.503 262.641 129.857 262.641 132.761C262.641 135.665 264.996 138.019 267.901 138.019Z" fill="#D0CDE1"/>
<path d="M113.456 90.9044C117.685 90.9044 121.113 87.4771 121.113 83.2493C121.113 79.0215 117.685 75.5942 113.456 75.5942C109.226 75.5942 105.798 79.0215 105.798 83.2493C105.798 87.4771 109.226 90.9044 113.456 90.9044Z" fill="#2F2E41"/>
<path d="M115.589 75.8049C116.914 75.805 118.217 76.149 119.369 76.8031C120.522 77.4572 121.485 78.399 122.164 79.5366C122.843 80.6741 123.216 81.9684 123.245 83.2929C123.274 84.6174 122.959 85.9267 122.33 87.093C122.994 86.2626 123.478 85.3031 123.75 84.2756C124.023 83.2481 124.078 82.1751 123.913 81.125C123.747 80.0749 123.365 79.0708 122.79 78.1766C122.215 77.2823 121.46 76.5177 120.573 75.9313C119.686 75.3449 118.687 74.9496 117.639 74.7707C116.59 74.5918 115.516 74.6331 114.485 74.892C113.454 75.1509 112.488 75.6218 111.648 76.2746C110.809 76.9274 110.115 77.7478 109.611 78.6835C110.326 77.7851 111.236 77.0597 112.271 76.5613C113.306 76.0629 114.44 75.8043 115.589 75.8049V75.8049Z" fill="#2F2E41"/>
<path d="M99.1462 83.233C111.57 83.233 121.641 73.1653 121.641 60.7462C121.641 48.3271 111.57 38.2594 99.1462 38.2594C86.7228 38.2594 76.6517 48.3271 76.6517 60.7462C76.6517 73.1653 86.7228 83.233 99.1462 83.233Z" fill="#2F2E41"/>
<path d="M81.4917 46.7942C85.3677 42.4366 90.7857 39.7549 96.6021 39.315C102.419 38.875 108.178 40.7114 112.666 44.4364C112.482 44.2616 112.3 44.0854 112.109 43.9155C107.65 39.9531 101.8 37.9236 95.844 38.2735C89.8884 38.6234 84.3157 41.324 80.3519 45.7813C76.3882 50.2385 74.358 56.0873 74.708 62.0409C75.058 67.9945 77.7596 73.5653 82.2183 77.5277C82.4095 77.6976 82.6058 77.8576 82.801 78.0197C78.5747 74.0008 76.0757 68.4976 75.8314 62.6716C75.5871 56.8456 77.6167 51.1526 81.4917 46.7942V46.7942Z" fill="#2F2E41"/>
<path d="M98.9556 83.0425C106.957 83.0425 113.444 76.5582 113.444 68.5594C113.444 60.5606 106.957 54.0764 98.9556 54.0764C90.9541 54.0764 84.4676 60.5606 84.4676 68.5594C84.4676 76.5582 90.9541 83.0425 98.9556 83.0425Z" fill="#A0616A"/>
<path d="M88.6615 73.1331C88.6615 73.1331 90.5678 90.6652 87.5177 92.5708C84.4676 94.4765 105.056 97.1444 105.056 97.1444C105.056 97.1444 102.006 78.0878 109.631 73.1331L88.6615 73.1331Z" fill="#A0616A"/>
<path d="M106.962 89.5218C106.962 89.5218 112.639 86.8716 104.463 87.8155C96.2867 88.7595 89.2325 85.1387 89.2325 85.1387C89.2325 85.1387 86.7552 82.6614 86.3739 85.3293C85.9927 87.9972 87.5177 92.952 79.1299 93.7142C70.7422 94.4765 63.1169 92.1897 60.0668 97.9067C57.0167 103.624 58.5418 128.397 58.5418 128.397C58.5418 128.397 64.2607 148.978 68.8359 152.028C73.411 155.077 113.444 150.884 113.444 150.884L124.881 130.303V106.292C124.881 106.292 123.356 97.9067 112.681 100.193C112.681 100.193 105.818 98.669 106.2 95.2388C106.581 91.8086 106.962 89.5218 106.962 89.5218Z" fill="#D0CDE1"/>
<path d="M70.3489 166.592C70.5846 165.566 70.7424 164.986 70.7424 164.986L70.6204 164.151L69.3643 155.624L68.8362 152.027C73.4103 150.122 74.5548 141.355 74.5548 141.355L74.7274 141.252L75.508 140.785V140.783L78.3105 139.102L78.3673 139.069L79.4993 139.822L81.7989 141.355C84.8138 143.604 88.2649 145.199 91.9316 146.039C95.5983 146.879 99.4 146.945 103.094 146.233C104.813 145.938 106.494 145.453 108.105 144.785L113.652 142.937L113.824 142.88L113.994 142.905L117.247 143.397L117.306 143.408L117.575 143.448L116.822 148.653L115.73 156.219C118.615 157.746 121.18 160.615 123.423 164.15C123.919 164.933 124.4 165.747 124.866 166.592C125.472 167.686 126.05 168.824 126.602 169.989C126.669 170.128 126.734 170.269 126.799 170.41C127.012 170.866 127.222 171.327 127.426 171.79H69.339C69.4147 171.325 69.4905 170.881 69.5641 170.454C69.568 170.44 69.5708 170.425 69.5725 170.41C69.5999 170.267 69.6252 170.128 69.6483 169.989C69.905 168.601 70.1533 167.442 70.3489 166.592Z" fill="#2F2E41"/>
<path d="M68.0734 93.3331C68.0734 93.3331 72.2673 100.956 70.7422 110.484C69.2171 120.012 75.3173 143.643 75.3173 143.643L79.8925 142.499C79.8925 142.499 76.8424 122.68 77.6049 118.107C78.3674 113.533 78.3674 95.6199 74.5548 93.3331C70.7422 91.0463 68.0734 93.3331 68.0734 93.3331Z" fill="#2F2E41"/>
<path d="M112.413 101.255L114.015 143.452L117.066 145.358C117.066 145.358 121.45 99.05 119.162 99.05H114.508C114.223 99.05 113.942 99.1079 113.68 99.2201C113.419 99.3323 113.183 99.4965 112.987 99.7027C112.791 99.909 112.639 100.153 112.54 100.42C112.442 100.686 112.398 100.97 112.413 101.255V101.255Z" fill="#2F2E41"/>
<path d="M77.4143 142.69C78.4671 142.69 79.3206 141.837 79.3206 140.784C79.3206 139.732 78.4671 138.878 77.4143 138.878C76.3614 138.878 75.508 139.732 75.508 140.784C75.508 141.837 76.3614 142.69 77.4143 142.69Z" fill="#FF6666"/>
<path d="M115.54 144.595C116.593 144.595 117.447 143.742 117.447 142.69C117.447 141.637 116.593 140.784 115.54 140.784C114.488 140.784 113.634 141.637 113.634 142.69C113.634 143.742 114.488 144.595 115.54 144.595Z" fill="#FF6666"/>
<path d="M86.5646 50.4555V64.9386H89.9198L94.1897 60.3651L93.6178 64.9386H108.449L107.534 60.3651L109.364 64.9386H111.728V50.4555H86.5646Z" fill="#2F2E41"/>
<path d="M84.277 67.6066C84.9087 67.6066 85.4208 66.6681 85.4208 65.5104C85.4208 64.3526 84.9087 63.4141 84.277 63.4141C83.6453 63.4141 83.1332 64.3526 83.1332 65.5104C83.1332 66.6681 83.6453 67.6066 84.277 67.6066Z" fill="#A0616A"/>
<path d="M113.634 67.6066C114.266 67.6066 114.778 66.6681 114.778 65.5104C114.778 64.3526 114.266 63.4141 113.634 63.4141C113.002 63.4141 112.49 64.3526 112.49 65.5104C112.49 66.6681 113.002 67.6066 113.634 67.6066Z" fill="#A0616A"/>
<path d="M121.45 142.499C121.45 142.499 104.103 139.26 102.959 144.977C101.815 150.694 122.213 148.216 122.213 148.216L121.45 142.499Z" fill="#A0616A"/>
<path d="M121.069 103.242C121.069 103.242 162.626 136.401 155.001 144.405C147.376 152.409 118.4 150.122 118.4 150.122L120.306 140.593L137.082 138.688L128.694 130.303L121.069 131.065V103.242Z" fill="#D0CDE1"/>
<path d="M59.6856 158.507L65.0233 162.699C65.0233 162.699 68.8359 174.514 74.5548 171.084C80.2738 167.654 69.2172 155.458 69.2172 155.458L62.7357 153.171L59.6856 158.507Z" fill="#A0616A"/>
<path d="M65.0233 97.1444L59.7 98.7458C59.7 98.7458 22.7032 126.11 21.1781 133.733C19.6531 141.356 28.4221 145.548 28.4221 145.548L61.5919 161.175L65.0233 152.028L49.3915 144.024C49.3915 144.024 50.5353 141.737 45.9602 141.356C41.385 140.975 40.6225 136.02 40.6225 136.02C40.6225 136.02 49.7728 121.918 54.7292 124.967C59.6856 128.016 61.2106 130.303 61.2106 130.303L65.0233 97.1444Z" fill="#D0CDE1"/>
<path d="M140.949 167.899V169.175C140.95 169.526 140.885 169.873 140.757 170.2C140.701 170.345 140.633 170.486 140.553 170.62C140.303 171.041 139.947 171.389 139.521 171.631C139.095 171.873 138.613 172 138.123 172H44.1688C43.6788 172 43.1973 171.873 42.7712 171.631C42.3452 171.389 41.9894 171.041 41.7386 170.62C41.6593 170.486 41.5911 170.345 41.5345 170.2C41.4073 169.873 41.3424 169.526 41.3431 169.175V167.899C41.343 167.528 41.416 167.16 41.558 166.817C41.6999 166.475 41.9081 166.163 42.1705 165.901C42.4329 165.639 42.7444 165.431 43.0873 165.289C43.4302 165.147 43.7977 165.074 44.1688 165.074H49.5845V164.479C49.5845 164.463 49.5875 164.448 49.5934 164.434C49.5993 164.419 49.608 164.406 49.6189 164.395C49.6299 164.384 49.6429 164.376 49.6572 164.37C49.6715 164.364 49.6868 164.361 49.7023 164.361H52.528C52.5435 164.361 52.5588 164.364 52.5731 164.37C52.5874 164.376 52.6004 164.384 52.6114 164.395C52.6223 164.406 52.631 164.419 52.6369 164.434C52.6428 164.448 52.6458 164.463 52.6458 164.479V165.074H54.4111V164.479C54.411 164.463 54.4141 164.448 54.42 164.434C54.4259 164.419 54.4346 164.406 54.4455 164.395C54.4565 164.384 54.4695 164.376 54.4838 164.37C54.4981 164.364 54.5134 164.361 54.5289 164.361H57.3546C57.37 164.361 57.3854 164.364 57.3997 164.37C57.414 164.376 57.427 164.384 57.4379 164.395C57.4489 164.406 57.4576 164.419 57.4635 164.434C57.4694 164.448 57.4724 164.463 57.4724 164.479V165.074H59.2398V164.479C59.2398 164.463 59.2428 164.448 59.2487 164.434C59.2546 164.419 59.2633 164.406 59.2742 164.395C59.2852 164.384 59.2982 164.376 59.3125 164.37C59.3268 164.364 59.3421 164.361 59.3576 164.361H62.1833C62.1988 164.361 62.2141 164.364 62.2284 164.37C62.2427 164.376 62.2557 164.384 62.2667 164.395C62.2776 164.406 62.2863 164.419 62.2922 164.434C62.2981 164.448 62.3011 164.463 62.3011 164.479V165.074H64.0664V164.479C64.0663 164.463 64.0694 164.448 64.0753 164.434C64.0812 164.419 64.0899 164.406 64.1008 164.395C64.1118 164.384 64.1248 164.376 64.1391 164.37C64.1534 164.364 64.1687 164.361 64.1842 164.361H67.0099C67.0254 164.361 67.0407 164.364 67.055 164.37C67.0693 164.376 67.0823 164.384 67.0932 164.395C67.1042 164.406 67.1129 164.419 67.1188 164.434C67.1247 164.448 67.1277 164.463 67.1277 164.479V165.074H68.893V164.479C68.8929 164.463 68.896 164.448 68.9019 164.434C68.9078 164.419 68.9165 164.406 68.9274 164.395C68.9384 164.384 68.9514 164.376 68.9657 164.37C68.98 164.364 68.9953 164.361 69.0108 164.361H71.8365C71.8519 164.361 71.8673 164.364 71.8816 164.37C71.8959 164.376 71.9089 164.384 71.9198 164.395C71.9308 164.406 71.9395 164.419 71.9454 164.434C71.9513 164.448 71.9543 164.463 71.9543 164.479V165.074H73.7216V164.479C73.7216 164.463 73.7246 164.448 73.7305 164.434C73.7365 164.419 73.7451 164.406 73.7561 164.395C73.767 164.384 73.78 164.376 73.7943 164.37C73.8086 164.364 73.824 164.361 73.8395 164.361H76.6652C76.6806 164.361 76.696 164.364 76.7103 164.37C76.7246 164.376 76.7376 164.384 76.7485 164.395C76.7595 164.406 76.7681 164.419 76.7741 164.434C76.78 164.448 76.783 164.463 76.783 164.479V165.074H78.5483V164.479C78.5482 164.463 78.5513 164.448 78.5572 164.434C78.5631 164.419 78.5718 164.406 78.5827 164.395C78.5936 164.384 78.6066 164.376 78.621 164.37C78.6353 164.364 78.6506 164.361 78.6661 164.361H100.8C100.816 164.361 100.831 164.364 100.845 164.37C100.86 164.376 100.873 164.384 100.884 164.395C100.895 164.406 100.903 164.419 100.909 164.434C100.915 164.448 100.918 164.463 100.918 164.479V165.074H102.685V164.479C102.685 164.463 102.688 164.448 102.694 164.434C102.7 164.419 102.709 164.406 102.72 164.395C102.731 164.384 102.744 164.376 102.758 164.37C102.772 164.364 102.788 164.361 102.803 164.361H105.629C105.66 164.361 105.69 164.374 105.712 164.396C105.734 164.418 105.746 164.447 105.747 164.479V165.074H107.512V164.479C107.512 164.463 107.515 164.448 107.521 164.434C107.527 164.419 107.535 164.406 107.546 164.395C107.557 164.384 107.57 164.376 107.585 164.37C107.599 164.364 107.614 164.361 107.63 164.361H110.455C110.471 164.361 110.486 164.364 110.501 164.37C110.515 164.376 110.528 164.384 110.539 164.395C110.55 164.406 110.558 164.419 110.564 164.434C110.57 164.448 110.573 164.463 110.573 164.479V165.074H112.339V164.479C112.339 164.463 112.342 164.448 112.347 164.434C112.353 164.419 112.362 164.406 112.373 164.395C112.384 164.384 112.397 164.376 112.411 164.37C112.426 164.364 112.441 164.361 112.456 164.361H115.282C115.298 164.361 115.313 164.364 115.327 164.37C115.342 164.376 115.355 164.384 115.365 164.395C115.376 164.406 115.385 164.419 115.391 164.434C115.397 164.448 115.4 164.463 115.4 164.479V165.074H117.167V164.479C117.167 164.463 117.17 164.448 117.176 164.434C117.182 164.419 117.191 164.406 117.202 164.395C117.213 164.384 117.226 164.376 117.24 164.37C117.254 164.364 117.27 164.361 117.285 164.361H120.111C120.142 164.361 120.171 164.374 120.193 164.396C120.215 164.418 120.227 164.448 120.226 164.479V165.074H121.994V164.479C121.994 164.463 121.997 164.448 122.003 164.434C122.009 164.419 122.017 164.406 122.028 164.395C122.039 164.384 122.052 164.376 122.067 164.37C122.081 164.364 122.096 164.361 122.112 164.361H124.937C124.953 164.361 124.968 164.364 124.982 164.37C124.997 164.376 125.01 164.384 125.021 164.395C125.032 164.406 125.04 164.419 125.046 164.434C125.052 164.448 125.055 164.463 125.055 164.479V165.074H126.82V164.479C126.82 164.463 126.823 164.448 126.829 164.434C126.835 164.419 126.844 164.406 126.855 164.395C126.866 164.384 126.879 164.376 126.893 164.37C126.907 164.364 126.923 164.361 126.938 164.361H129.764C129.779 164.361 129.795 164.364 129.809 164.37C129.823 164.376 129.836 164.384 129.847 164.395C129.858 164.406 129.867 164.419 129.873 164.434C129.879 164.448 129.882 164.463 129.882 164.479V165.074H138.123C138.494 165.074 138.862 165.147 139.205 165.289C139.548 165.431 139.859 165.639 140.121 165.901C140.384 166.163 140.592 166.475 140.734 166.817C140.876 167.16 140.949 167.528 140.949 167.899V167.899Z" fill="#3F3D56"/>
<path d="M133.383 114.131H98.3637V113.41H82.4844V114.131H47.3204C46.6921 114.131 46.0896 114.381 45.6454 114.825C45.2011 115.269 44.9515 115.871 44.9515 116.499V164.436C44.9515 165.064 45.2011 165.666 45.6453 166.11C46.0896 166.554 46.6921 166.804 47.3204 166.804H133.383C134.012 166.804 134.614 166.554 135.058 166.11C135.503 165.666 135.752 165.064 135.752 164.436V116.499C135.752 115.871 135.503 115.269 135.058 114.825C134.614 114.381 134.012 114.131 133.383 114.131V114.131Z" fill="#3F3D56"/>
<path d="M90.4208 136.125C93.3258 136.125 95.6808 133.771 95.6808 130.867C95.6808 127.963 93.3258 125.609 90.4208 125.609C87.5158 125.609 85.1608 127.963 85.1608 130.867C85.1608 133.771 87.5158 136.125 90.4208 136.125Z" stroke="#D0CDE1" stroke-width="2" stroke-miterlimit="10"/>
<path d="M88.7376 138.018C91.6426 138.018 93.9976 135.664 93.9976 132.76C93.9976 129.856 91.6426 127.502 88.7376 127.502C85.8325 127.502 83.4775 129.856 83.4775 132.76C83.4775 135.664 85.8325 138.018 88.7376 138.018Z" fill="#D0CDE1"/>
<path d="M336 170.43H24.8793V171.085H336V170.43Z" fill="#3F3D56"/>
<path d="M163.482 56.1351L163.498 56.1325L161.208 42.7502L148.546 46.7714L150.441 58.7408C149.788 58.3284 149.01 58.1614 148.246 58.2695C147.482 58.3776 146.781 58.7539 146.268 59.3311C145.756 59.9083 145.466 60.6488 145.449 61.4203C145.433 62.1918 145.691 62.944 146.178 63.5426C146.665 64.1411 147.35 64.5471 148.109 64.6878C148.868 64.8285 149.652 64.6949 150.321 64.3108C150.991 63.9266 151.502 63.3171 151.763 62.591C152.025 61.8649 152.019 61.0695 151.748 60.347L151.76 60.3452L149.726 47.4999L160.375 44.1181L162.185 54.6968C161.517 54.3018 160.729 54.1591 159.965 54.2946C159.201 54.4301 158.51 54.8349 158.019 55.4355C157.528 56.0361 157.268 56.7928 157.286 57.5686C157.305 58.3443 157.601 59.0876 158.121 59.6639C158.641 60.2402 159.35 60.6113 160.12 60.7099C160.89 60.8085 161.669 60.6281 162.318 60.2014C162.966 59.7747 163.44 59.1299 163.654 58.384C163.867 57.638 163.806 56.8402 163.482 56.1351V56.1351Z" fill="#3F3D56"/>
<path d="M224.101 61.2561L224.117 61.2534L221.827 47.8711L209.165 51.8923L211.06 63.8618C210.407 63.4494 209.629 63.2823 208.865 63.3904C208.101 63.4985 207.4 63.8748 206.887 64.452C206.375 65.0292 206.085 65.7697 206.068 66.5412C206.052 67.3127 206.31 68.0649 206.797 68.6635C207.284 69.2621 207.969 69.668 208.728 69.8087C209.487 69.9495 210.271 69.8158 210.94 69.4317C211.61 69.0476 212.121 68.438 212.382 67.7119C212.644 66.9858 212.638 66.1905 212.367 65.468L212.379 65.4662L210.345 52.6208L220.994 49.239L222.804 59.8178C222.136 59.4228 221.349 59.2801 220.584 59.4156C219.82 59.5511 219.13 59.9558 218.638 60.5564C218.147 61.1571 217.887 61.9138 217.905 62.6895C217.924 63.4652 218.22 64.2086 218.74 64.7849C219.26 65.3611 219.969 65.7322 220.739 65.8308C221.509 65.9294 222.288 65.749 222.937 65.3223C223.585 64.8956 224.059 64.2508 224.273 63.5049C224.486 62.7589 224.426 61.9611 224.101 61.2561V61.2561Z" fill="#3F3D56"/>
<path d="M180.774 70.8585L180.783 70.8571L179.152 60.5507L178.346 60.6781L179.761 69.6131C179.255 69.2933 178.652 69.1638 178.059 69.2476C177.466 69.3315 176.923 69.6232 176.526 70.0708C176.128 70.5183 175.903 71.0925 175.89 71.6907C175.878 72.2889 176.078 72.8721 176.456 73.3363C176.833 73.8004 177.364 74.1151 177.952 74.2242C178.541 74.3333 179.149 74.2297 179.668 73.9318C180.187 73.634 180.584 73.1614 180.786 72.5984C180.989 72.0354 180.985 71.4187 180.774 70.8585V70.8585Z" fill="#3F3D56"/>
<path d="M194.614 58.0628C194.615 57.5042 194.431 56.961 194.089 56.5188C193.748 56.0766 193.269 55.7605 192.728 55.6203C192.187 55.4801 191.615 55.5237 191.102 55.7442C190.588 55.9648 190.163 56.3499 189.892 56.8387C189.622 57.3275 189.522 57.8924 189.608 58.4444C189.694 58.9963 189.961 59.504 190.367 59.8874C190.774 60.2709 191.296 60.5083 191.852 60.5624C192.409 60.6164 192.967 60.484 193.44 60.1859L192.025 69.1209L192.831 69.2483L194.462 58.9419L194.453 58.9405C194.559 58.6599 194.614 58.3626 194.614 58.0628V58.0628Z" fill="#3F3D56"/>
<g opacity="0.9">
<path fill-rule="evenodd" clip-rule="evenodd" d="M254.426 101C254.421 101.04 254.417 101.08 254.412 101.12C254.351 101.74 254.294 102.388 254.241 103.066C254.195 103.736 254.149 104.41 254.103 105.087C254.065 105.765 254.031 106.403 254 107H255.741C255.764 106.264 255.795 105.463 255.833 104.596C255.871 103.729 255.928 102.854 256.005 101.973C256.142 102.279 256.295 102.618 256.463 102.989C256.631 103.361 256.795 103.732 256.955 104.104C257.123 104.475 257.284 104.832 257.436 105.175C257.589 105.51 257.719 105.798 257.826 106.038H259.074C259.181 105.798 259.311 105.51 259.464 105.175C259.617 104.832 259.773 104.475 259.934 104.104L260.438 102.989C260.606 102.618 260.758 102.279 260.896 101.973C260.972 102.854 261.029 103.729 261.068 104.596C261.106 105.463 261.136 106.264 261.159 107H262.9C262.87 106.403 262.832 105.765 262.786 105.087C262.748 104.41 262.702 103.736 262.648 103.066C262.603 102.388 262.545 101.74 262.477 101.12C262.473 101.08 262.469 101.04 262.465 101H259.828C259.754 101.152 259.679 101.308 259.601 101.47C259.41 101.878 259.22 102.297 259.029 102.727C258.838 103.157 258.658 103.561 258.49 103.94C258.322 103.561 258.143 103.157 257.952 102.727C257.761 102.297 257.566 101.878 257.368 101.47C257.293 101.308 257.22 101.152 257.146 101H254.426ZM264.509 101V107H266.296V101H264.509ZM268.134 101V107H269.921V104.235H270.803C270.955 104.41 271.108 104.607 271.261 104.825C271.414 105.036 271.566 105.262 271.719 105.503C271.879 105.743 272.032 105.991 272.177 106.246C272.33 106.501 272.479 106.752 272.624 107H274.628C274.491 106.723 274.342 106.443 274.182 106.158C274.021 105.867 273.853 105.59 273.678 105.328C273.51 105.058 273.338 104.803 273.162 104.563C272.987 104.315 272.819 104.097 272.658 103.907C273.139 103.718 273.506 103.459 273.758 103.131C274.018 102.796 274.147 102.363 274.147 101.831C274.147 101.525 274.107 101.248 274.025 101H271.792C271.814 101.011 271.836 101.022 271.856 101.033C272.154 101.186 272.303 101.448 272.303 101.82C272.303 102.206 272.158 102.479 271.868 102.639C271.578 102.8 271.097 102.88 270.425 102.88H269.921V101H268.134ZM275.774 101V107H277.561V104.235H278.443C278.596 104.41 278.748 104.607 278.901 104.825C279.054 105.036 279.206 105.262 279.359 105.503C279.52 105.743 279.672 105.991 279.817 106.246C279.97 106.501 280.119 106.752 280.264 107H282.269C282.131 106.723 281.982 106.443 281.822 106.158C281.662 105.867 281.494 105.59 281.318 105.328C281.15 105.058 280.978 104.803 280.802 104.563C280.627 104.315 280.459 104.097 280.298 103.907C280.78 103.718 281.146 103.459 281.398 103.131C281.658 102.796 281.788 102.363 281.788 101.831C281.788 101.525 281.747 101.248 281.665 101H279.433C279.455 101.011 279.476 101.022 279.497 101.033C279.794 101.186 279.943 101.448 279.943 101.82C279.943 102.206 279.798 102.479 279.508 102.639C279.218 102.8 278.737 102.88 278.065 102.88H277.561V101H275.774ZM285.373 101C285.366 101.015 285.359 101.029 285.353 101.044C285.108 101.59 284.856 102.17 284.597 102.782C284.345 103.394 284.085 104.046 283.818 104.738C283.551 105.43 283.268 106.184 282.97 107H284.826C284.91 106.738 285.002 106.468 285.101 106.191C285.208 105.914 285.311 105.638 285.41 105.361H288.503L288.801 106.191C288.908 106.468 289.003 106.738 289.087 107H291C290.702 106.184 290.42 105.43 290.152 104.738C289.885 104.046 289.622 103.394 289.362 102.782C289.11 102.17 288.858 101.59 288.606 101.044C288.599 101.029 288.593 101.015 288.586 101H285.373ZM286.773 101.59C286.85 101.401 286.907 101.252 286.945 101.142C286.991 101.252 287.052 101.401 287.128 101.59C287.205 101.78 287.292 101.998 287.392 102.246C287.499 102.494 287.609 102.767 287.724 103.066C287.838 103.364 287.957 103.678 288.079 104.006H285.822C285.945 103.678 286.063 103.364 286.178 103.066C286.3 102.767 286.41 102.494 286.51 102.246C286.609 101.998 286.697 101.78 286.773 101.59Z" fill="#FF6666"/>
</g>
<path opacity="0.1" d="M165.936 2.77226C182.989 -3.56434 203.75 1.88536 221.479 9.83347C277.161 34.8025 317.728 82.2005 349.958 130.489C361.627 147.974 372.712 166.229 377.099 185.749C386.031 225.478 362.733 266.607 323.111 281.02C309.637 285.927 294.834 287.938 280.008 289.059C253.645 291.056 226.349 290.263 200.197 282.87C181.547 277.586 163.905 269.087 146.984 259.697C99.7278 233.46 56.5719 199.388 25.497 157.768C11.868 139.513 0.338125 118.933 0.0058951 97.8703C-0.326335 76.8074 13.4046 55.6427 35.9963 52.0611C45.3365 50.5817 55.2165 52.1215 64.855 53.7066C79.0465 56.0427 93.4306 58.4996 107.46 57.4806C121.953 56.4201 140.804 50.7591 143.446 36.9273C146.244 22.0764 148.905 9.10131 165.936 2.77226Z" fill="#3F3D56"/>
</svg>
