<svg width="330" height="56" viewBox="0 0 330 56" fill="none" xmlns="http://www.w3.org/2000/svg">
<path fill-rule="evenodd" clip-rule="evenodd" d="M3.9108 0C3.87106 0.372262 3.83146 0.746927 3.792 1.124C3.248 6.904 2.738 12.956 2.26199 19.28C1.854 25.536 1.446 31.826 1.038 38.15C0.697995 44.474 0.391995 50.424 0.119995 56H15.624C15.828 49.132 16.1 41.652 16.44 33.56C16.78 25.468 17.29 17.308 17.97 9.08C19.194 11.936 20.554 15.098 22.05 18.566C23.546 22.034 25.008 25.502 26.436 28.97C27.932 32.438 29.36 35.77 30.72 38.966C32.08 42.094 33.236 44.78 34.188 47.024H45.306C46.258 44.78 47.414 42.094 48.774 38.966C50.134 35.77 51.528 32.438 52.956 28.97L57.444 18.566C58.94 15.098 60.3 11.936 61.524 9.08C62.204 17.308 62.714 25.468 63.054 33.56C63.394 41.652 63.666 49.132 63.87 56H79.374C79.102 50.424 78.762 44.474 78.354 38.15C78.014 31.826 77.606 25.536 77.13 19.28C76.722 12.956 76.212 6.904 75.6 1.124C75.5649 0.746927 75.5296 0.372262 75.4939 0H52.0166C51.3592 1.41628 50.6863 2.87895 49.998 4.388C48.298 8.196 46.598 12.106 44.898 16.118C43.198 20.13 41.6 23.904 40.104 27.44C38.608 23.904 37.01 20.13 35.31 16.118C33.61 12.106 31.876 8.196 30.108 4.388C29.4461 2.87895 28.7894 1.41628 28.1379 0H3.9108ZM93.701 0V56H109.613V0H93.701ZM125.974 0V56H141.886V30.194H149.74C151.1 31.826 152.46 33.662 153.82 35.702C155.18 37.674 156.54 39.782 157.9 42.026C159.328 44.27 160.688 46.582 161.98 48.962C163.34 51.342 164.666 53.688 165.958 56H183.808C182.584 53.416 181.258 50.798 179.83 48.146C178.402 45.426 176.906 42.842 175.342 40.394C173.846 37.878 172.316 35.498 170.752 33.254C169.188 30.942 167.692 28.902 166.264 27.134C170.548 25.366 173.812 22.952 176.056 19.892C178.368 16.764 179.524 12.718 179.524 7.754C179.524 4.89762 179.161 2.31295 178.433 0H158.554C158.75 0.0988789 158.941 0.201545 159.124 0.308C161.776 1.736 163.102 4.184 163.102 7.652C163.102 11.256 161.81 13.806 159.226 15.302C156.642 16.798 152.358 17.546 146.374 17.546H141.886V0H125.974ZM194.008 0V56H209.92V30.194H217.774C219.134 31.826 220.494 33.662 221.854 35.702C223.214 37.674 224.574 39.782 225.934 42.026C227.362 44.27 228.722 46.582 230.014 48.962C231.374 51.342 232.7 53.688 233.992 56H251.842C250.618 53.416 249.292 50.798 247.864 48.146C246.436 45.426 244.94 42.842 243.376 40.394C241.88 37.878 240.35 35.498 238.786 33.254C237.222 30.942 235.726 28.902 234.298 27.134C238.582 25.366 241.846 22.952 244.09 19.892C246.402 16.764 247.558 12.718 247.558 7.754C247.558 4.89762 247.194 2.31295 246.466 0H226.587C226.784 0.0988789 226.974 0.201545 227.158 0.308C229.81 1.736 231.136 4.184 231.136 7.652C231.136 11.256 229.844 13.806 227.26 15.302C224.676 16.798 220.392 17.546 214.408 17.546H209.92V0H194.008ZM279.483 0C279.423 0.136571 279.364 0.273237 279.304 0.409998C277.128 5.51 274.884 10.916 272.572 16.628C270.328 22.34 268.016 28.426 265.636 34.886C263.256 41.346 260.74 48.384 258.088 56H274.612C275.36 53.552 276.176 51.036 277.06 48.452C278.012 45.868 278.93 43.284 279.814 40.7H307.354L310.006 48.452C310.958 51.036 311.808 53.552 312.556 56H329.59C326.938 48.384 324.422 41.346 322.042 34.886C319.662 28.426 317.316 22.34 315.004 16.628C312.76 10.916 310.516 5.51 308.272 0.409998C308.213 0.273237 308.154 0.136571 308.094 0H279.483ZM291.952 5.51C292.632 3.742 293.142 2.348 293.482 1.328C293.89 2.348 294.434 3.742 295.114 5.51C295.794 7.278 296.576 9.318 297.46 11.63C298.412 13.942 299.398 16.492 300.418 19.28C301.438 22.068 302.492 24.992 303.58 28.052H283.486C284.574 24.992 285.628 22.068 286.648 19.28C287.736 16.492 288.722 13.942 289.606 11.63C290.49 9.318 291.272 7.278 291.952 5.51Z" fill="#FF6666"/>
</svg>
