<svg width="24" height="20" viewBox="0 0 24 20" fill="none" xmlns="http://www.w3.org/2000/svg">
<path d="M3 7V13H2V7H3ZM16 0L7 5V7.288L14 3.399V16.601L7 12.712V15L16 20V0ZM5 5H0V15H5V5ZM18.008 7.093C18.75 7.836 19.208 8.863 19.206 9.996C19.204 11.129 18.744 12.154 18.001 12.896L19.22 14.119C20.277 13.066 20.932 11.608 20.935 9.998C20.937 8.387 20.287 6.93 19.233 5.873L18.008 7.093V7.093ZM20.15 4.958C21.438 6.25 22.232 8.031 22.229 9.999C22.226 11.967 21.425 13.749 20.133 15.038L21.383 16.292C22.995 14.684 23.996 12.458 23.999 10.001C24.004 7.544 23.013 5.32 21.404 3.708L20.15 4.958V4.958Z" fill="#424242"/>
</svg>
